Coordinates
version=1
nRows=4
nColumns=63
inDegrees=yes

Units are S.I. units (second, meters, Newtons, ...)
If the header above contains a line with 'inDegrees', this indicates whether rotational values are in degrees (yes) or radians (no).

endheader
time	pelvis_tilt	pelvis_list	pelvis_rotation	pelvis_tx	pelvis_ty	pelvis_tz	hip_flexion_r	hip_adduction_r	hip_rotation_r	knee_angle_r	knee_angle_r_beta	ankle_angle_r	subtalar_angle_r	mtp_angle_r	hip_flexion_l	hip_adduction_l	hip_rotation_l	knee_angle_l	knee_angle_l_beta	ankle_angle_l	subtalar_angle_l	mtp_angle_l	L5_S1_Flex_Ext	L5_S1_Lat_Bending	L5_S1_axial_rotation	L4_L5_Flex_Ext	L4_L5_Lat_Bending	L4_L5_axial_rotation	L3_L4_Flex_Ext	L3_L4_Lat_Bending	L3_L4_axial_rotation	L2_L3_Flex_Ext	L2_L3_Lat_Bending	L2_L3_axial_rotation	L1_L2_Flex_Ext	L1_L2_Lat_Bending	L1_L2_axial_rotation	L1_T12_Flex_Ext	L1_T12_Lat_Bending	L1_T12_axial_rotation	Abs_r3	Abs_r2	Abs_r1	Abs_t1	Abs_t2	neck_flexion	neck_bending	neck_rotation	arm_flex_r	arm_add_r	arm_rot_r	elbow_flex_r	pro_sup_r	wrist_flex_r	wrist_dev_r	arm_flex_l	arm_add_l	arm_rot_l	elbow_flex_l	pro_sup_l	wrist_flex_l	wrist_dev_l
      0.95121951	      3.67166554	     -1.79524633	     94.21244398	     -0.11623170	      0.76618801	      0.70784225	      4.55952796	     -0.00113347	    -17.04681656	     10.73457958	      0.18735376	     27.07706981	     16.11243508	      0.00000000	      2.49566073	     -1.17421452	     12.10608126	      2.23422160	      0.03899452	     20.36079188	    -11.68619908	      0.00000000	      0.08237689	      0.06362041	      0.11219642	      0.15298212	      0.08461515	      0.11920869	      0.13533699	      0.15468667	      0.11920869	      0.09414855	      0.15468667	      0.09817186	      0.07649518	      0.12973475	      0.09115959	      0.04707015	      0.09854802	      0.08414731	      0.58840988	      0.71968683	      0.62400281	      0.00000000	      0.00000000	     22.31269265	     -5.83982320	      1.06549796	      3.49217945	    -15.18544427	     52.92912135	     27.57002128	     55.66324704	    -11.18722318	     -6.47468218	     17.09762002	     -8.54120081	     98.44189798	     21.96019493	     66.12463144	    -12.80298826	     -2.65373340
      0.97560976	      3.64818462	     -1.53887430	     94.12521217	     -0.11530046	      0.76665072	      0.70686851	      4.37788313	     -0.05301549	    -17.38083571	     11.32623298	      0.19768006	     26.69349849	     16.15890580	      0.00000000	      2.16543665	     -1.21261779	     11.92790107	      2.22525205	      0.03883797	     20.30075609	    -11.73960726	      0.00000000	      0.06397686	      0.06767801	      0.19082498	      0.11881143	      0.09001176	      0.20275154	      0.10510759	      0.16455232	      0.20275154	      0.07311916	      0.16455232	      0.16697186	      0.05940891	      0.13800901	      0.15504530	      0.03655638	      0.10483324	      0.14311874	      0.45698033	      0.76558724	      1.06131131	      0.00000000	      0.00000000	     21.59721097	     -5.85133313	      1.16157710	      0.52105304	    -14.91344849	     40.68400924	     28.94313955	     65.27355260	     -8.68809105	     -2.47311034	     17.13271251	     -8.60771530	     99.32939110	     21.60367460	     63.01233924	    -14.08363858	     -3.52058685
      1.00000000	      3.58758152	     -1.26813163	     94.05153465	     -0.11440903	      0.76720168	      0.70599617	      4.16086256	     -0.11985925	    -17.56616758	     11.80168882	      0.20597833	     26.34009568	     16.03759008	      0.00000000	      1.83254255	     -1.21833574	     11.80797082	      2.20367226	      0.03846134	     20.19605535	    -11.75017594	      0.00000000	      0.04399091	      0.06274124	      0.17823320	      0.08169552	      0.08344585	      0.18937277	      0.07227267	      0.15254905	      0.18937277	      0.05027721	      0.15254905	      0.15595405	      0.04084996	      0.12794193	      0.14481447	      0.02513641	      0.09718618	      0.13367490	      0.31422269	      0.70974143	      0.99127957	      0.00000000	      0.00000000	     20.73067021	     -5.29638001	      1.73104309	     -0.54905123	    -15.38717834	     38.76715946	     29.76062254	     65.11854602	     -8.43474084	     -0.76103938	     16.66433529	     -8.91653855	     97.68357415	     21.29707441	     60.99348987	    -15.04644406	     -4.05372322
      1.02439024	      3.61177358	     -1.02838320	     93.90180929	     -0.11354585	      0.76748436	      0.70502486	      3.99197728	     -0.09360356	    -17.63946529	     12.21363788	      0.21316819	     26.19904789	     16.03208058	      0.00000000	      1.57239970	     -1.29513187	     11.65915114	      2.30320486	      0.04019851	     20.17189945	    -11.87884599	      0.00000000	      0.02077539	      0.07532625	      0.26385481	      0.03858198	      0.10018391	      0.28034574	      0.03413189	      0.18314823	      0.28034574	      0.02374420	      0.18314823	      0.23087296	      0.01929203	      0.15360528	      0.21438203	      0.01187106	      0.11668035	      0.19789111	      0.14839656	      0.85210556	      1.46748129	      0.00000000	      0.00000000	     20.12831637	     -5.17508303	      1.99750400	     -3.12731584	    -14.79091786	     27.28638323	     31.38817439	     77.72607195	     -5.03268279	      4.35149319	     16.84018839	     -8.82879254	     99.76213724	     20.79540323	     54.39714588	    -15.26862360	     -5.37974071
